name C:\Users\tom_v\MusculoskeletalSpecialization\ResultsSprinting\Case_5\motion.mot
datacolumns 32
datarows 16
range 0.23656172 0.30753024
endheader 
time	pelvis_tilt	pelvis_list	pelvis_rotation	pelvis_tx	pelvis_ty	pelvis_tz	hip_flexion_r	hip_adduction_r	hip_rotation_r	knee_angle_r	ankle_angle_r	subtalar_angle_r	mtp_angle_r	hip_flexion_l	hip_adduction_l	hip_rotation_l	knee_angle_l	ankle_angle_l	subtalar_angle_l	mtp_angle_l	lumbar_extension	lumbar_bending	lumbar_rotation	arm_flex_r	arm_add_r	arm_rot_r	elbow_flex_r	arm_flex_l	arm_add_l	arm_rot_l	elbow_flex_l	
          0.23656172	         -6.73471788	          1.87068062	         -0.66954016	          2.08655207	          1.00883106	          0.00087539	         20.88804346	         -4.63900211	         -2.47729853	        -55.52283943	         -4.16688369	         -4.81314114	          2.71896452	         25.67779418	          3.63079077	         -9.95164091	         -7.18553086	          2.02676620	         -2.33808312	          1.70014766	        -17.03148130	         -4.99024313	          0.18337037	         14.41328530	         -8.90372169	        -13.13198819	         16.26865553	         -7.80070796	        -11.18258958	          6.23720786	          5.37125147	
          0.24129296	         -7.28322373	          1.39375885	          0.83683489	          2.12701709	          1.00494386	          0.00113147	         23.46824325	         -4.05900039	         -2.53854293	        -56.57190290	         -3.40301107	         -4.53842469	          4.33828803	         23.99167525	          3.38137792	         -9.68214241	         -5.82641736	         -0.94255509	         -1.48223841	          3.44730119	        -16.12400291	         -4.63521683	         -1.52561538	         18.07111929	         -7.08247037	        -12.84881531	          8.67099206	          1.53212447	        -13.22965327	         -2.30875975	          1.21021247	
          0.24602419	         -7.86821900	          0.78923908	          2.40950896	          2.16778028	          1.00019384	          0.00133711	         26.12384684	         -3.51530243	         -2.76827687	        -57.65943161	         -2.75638409	         -4.16128537	          5.21628024	         22.34511456	          2.96569201	         -9.19598105	         -4.57358005	         -4.34669397	         -1.34083740	          4.87237348	        -15.08229990	         -4.24601501	         -3.14898751	         20.68250158	         -5.88826219	        -13.00300537	          2.13489663	          9.86447663	        -15.99944830	         -9.07264582	          0.19219401	
          0.25075543	         -8.57451707	          0.07433754	          4.07385177	          2.20895227	          0.99460548	          0.00127033	         28.91257534	         -3.08835245	         -3.18780503	        -58.74792184	         -1.79103213	         -3.43149872	          5.77082597	         20.89436110	          2.45189357	         -8.76975774	         -3.79893947	         -8.85566004	         -1.61357183	          5.91002259	        -13.85184585	         -3.83308600	         -4.76862280	         21.01579340	         -5.40801555	        -12.89694498	          0.00022191	         15.83328188	        -18.80710031	        -12.93869740	          5.21388894	
          0.25548666	         -9.41095605	         -0.07261966	          6.10411001	          2.25012268	          0.98910565	          0.00007868	         31.79634668	         -3.71545455	         -3.80535621	        -59.85623487	         -0.78440935	         -2.48231379	          6.21563739	         19.95535374	          2.92513444	         -5.13302904	         -5.35830708	         -3.58692220	         -2.96285951	          7.31141573	        -12.65241022	         -4.08015474	         -6.88135983	         18.61119040	         -5.73000927	         -8.42208472	          3.46324802	         18.59017236	        -21.65511518	        -12.39766907	         18.11906727	
          0.26021789	        -10.14175863	          0.49593963	          8.33183158	          2.29127811	          0.98478874	         -0.00194309	         34.43412317	         -5.36788899	         -4.25392390	        -60.88445998	          0.02359571	         -1.70649330	          6.49201499	         18.66046275	          4.37730156	         -0.04792125	         -6.52373259	         -0.27959439	         -7.05235259	          9.00383104	        -11.92694989	         -5.16811649	         -9.30682976	         13.03264638	         -8.02691092	          2.41741919	         14.27975802	         18.90668738	        -25.89213941	         -6.95858572	         37.56104463	
          0.26494913	        -10.74693008	          1.10739933	         10.49258223	          2.33236020	          0.98145507	         -0.00424204	         36.82868122	         -7.09357943	         -4.45035358	        -61.71314537	          0.75709950	         -1.22904452	          6.58580965	         17.09563749	          5.74182604	          4.56784330	         -7.51277621	          2.01553129	        -10.78634078	         10.83715162	        -11.58995324	         -6.32398221	        -11.51769152	          5.48915364	        -13.65394550	         13.43674001	         31.13998178	         19.98784309	        -32.05309666	          0.99576089	         58.08696432	
          0.26968036	        -11.27484732	          1.31211020	         12.27021692	          2.37348128	          0.97866477	         -0.00635091	         39.12897119	         -8.21311033	         -4.32844720	        -62.28758023	          1.58266945	         -0.86707791	          6.62346279	         15.48452655	          6.34561026	          7.80365018	         -8.48316205	          4.19771803	        -12.70061526	         12.60475965	        -11.31320323	         -6.98739773	        -13.04163684	         -2.91818827	        -21.36423078	         19.12385565	         49.96320669	         24.24715334	        -38.34857756	          9.41063886	         75.90504330	
          0.27441160	        -11.89837704	          0.94048720	         13.55279748	          2.41485888	          0.97600048	         -0.00814298	         41.55838433	         -8.52734930	         -3.96724719	        -62.57315901	          2.54280595	         -0.51775018	          5.94244798	         14.14420950	          6.04213129	          9.54708263	         -9.49574940	          6.40889171	        -12.78613272	         14.24609934	        -10.68708398	         -6.96045060	        -13.77501717	        -12.74450539	        -28.63319791	         18.14324361	         66.61190490	         31.14914482	        -42.19420454	         16.13548185	         90.18569636	
          0.27914283	        -12.56159163	         -0.06972372	         14.43073578	          2.45665264	          0.97349529	         -0.00985742	         44.01536329	         -8.09877746	         -3.66636588	        -62.52190834	          3.47432108	         -0.26928600	          4.00747727	         13.07247649	          4.84786245	          9.99999827	        -10.53527945	          8.43264206	        -11.52578279	         15.86643733	         -9.66855973	         -6.11534767	        -13.87894413	        -24.58738640	        -34.06130332	         11.65832793	         78.94983846	         38.28105888	        -42.10842963	         19.23459588	        100.94597846	
          0.28387407	        -13.26943656	         -1.54762040	         15.06032124	          2.49878870	          0.97122514	         -0.01174462	         46.46677636	         -7.26586395	         -3.60831764	        -62.17034835	          4.23489244	         -0.36530444	          1.24511724	         12.29027137	          3.04455810	          9.54353247	        -11.63936118	          9.75483194	         -9.62609580	         17.81704997	         -8.26799966	         -4.65312239	        -13.62879500	        -37.52515759	        -37.56474998	          2.75453779	         85.73679223	         43.98843634	        -38.29482495	         18.92218623	        108.23734656	
          0.28860530	        -14.01763212	         -3.25398628	         15.56861116	          2.54119764	          0.96937829	         -0.01385991	         48.86694013	         -6.34659289	         -3.81085962	        -61.56730905	          4.85577784	         -1.06849528	         -1.32796241	         11.78151065	          0.95575963	          8.64434035	        -12.87459002	         10.02709537	         -7.75665180	         20.26197821	         -6.58134763	         -2.88142431	        -13.34182049	        -49.78201659	        -39.55084389	         -5.66224563	         86.34535116	         47.51718862	        -31.70105229	         15.65104264	        112.54744127	
          0.29333653	        -14.66097794	         -4.98199759	         16.03574673	          2.58389428	          0.96827009	         -0.01613505	         51.03077878	         -5.51509294	         -4.21660438	        -60.76594071	          5.53351188	         -2.28126017	         -2.83238937	         11.35720197	         -1.21538464	          7.46773462	        -14.25571402	          9.04280893	         -6.26894638	         23.36357714	         -4.87710916	         -1.03223721	        -13.20217347	        -59.90345222	        -40.68847943	        -11.50068736	         81.54057000	         49.16361899	        -23.40864005	         10.44713511	        114.48180567	
          0.29806777	        -15.02016248	         -6.48422879	         16.57317114	          2.62686905	          0.96819507	         -0.01846326	         52.75989437	         -4.93970249	         -4.70187949	        -59.86735743	          6.29196222	         -3.72657689	         -3.14823385	         10.78059686	         -3.27791725	          5.98855131	        -15.77205205	          6.67618364	         -5.20483048	         27.22877294	         -3.50355800	          0.60606741	        -13.31842062	        -66.80197681	        -41.57955687	        -13.19994931	         72.11887916	         49.77714342	        -14.79966016	          5.32538981	        114.98760221	
          0.30279900	        -15.11287616	         -7.59607478	         17.28987234	          2.66989371	          0.96901291	         -0.02076841	         54.11142012	         -4.76796959	         -5.14584580	        -59.00727518	          7.02034624	         -5.13238758	         -2.80217942	         10.09072186	         -5.02925118	          4.57250411	        -17.50892875	          3.12376097	         -4.78099488	         31.00183756	         -2.57241994	          1.80523275	        -13.74183644	        -69.86055214	        -42.39703542	         -9.85532579	         58.68994975	         49.98904688	         -7.13423356	          1.99707671	        114.97525478	
          0.30753024	        -15.04209294	         -8.38434792	         18.21352899	          2.71268271	          0.97031881	         -0.02298942	         55.25656910	         -4.96897817	         -5.54707368	        -58.25851133	          7.68939107	         -6.33937744	         -2.49760695	          9.49466807	         -6.48439658	          3.42934782	        -19.74382780	          3.13999324	         -3.69811387	         23.51350065	         -1.99011989	          2.65144042	        -14.46362114	        -69.39731160	        -42.52619778	         -2.21783272	         42.29598881	         49.97519880	         -1.29028429	          1.41768230	        114.99308623	
